# xmcd
#
# Track frame offsets: 
#        150
#        14670
#        31050
#        44775
#        61352
#        79207
#        95627
#        112000
#        127827
#        145845
#        162232
#        176710
#        204160
#        217317
#
# Disc length: 3183 seconds
#
# Revision: 0
# Processed by: cddbd v1.5.2PL0 Copyright (c) Steve Scherf et al.
# Submitted via: ExactAudioCopyFreeDBPlugin 1.0
#
DISCID=cd0c6d0e
DTITLE=由紀さおり・安田祥子 - あの時、この歌 第10集
DYEAR=1992
DGENRE=Blues
TTITLE0=夜明けのスキャット
TTITLE1=ふれあい 
TTITLE2=いい湯だな 
TTITLE3=恋の季節 
TTITLE4=ベッドで煙草を吸わないで
TTITLE5=いいじゃないの幸せならば
TTITLE6=女ひとり 
TTITLE7=見上げてごらん夜の星を
TTITLE8=夜明けのうた 
TTITLE9=世界は二人のために
TTITLE10=手のひらを太陽に
TTITLE11=希望
TTITLE12=天使のスキャット
TTITLE13=十二の誕生日
EXTD=
EXTT0=
EXTT1=
EXTT2=
EXTT3=
EXTT4=
EXTT5=
EXTT6=
EXTT7=
EXTT8=
EXTT9=
EXTT10=
EXTT11=
EXTT12=
EXTT13=
PLAYORDER=
